<svg width="176" height="48" viewBox="0 0 176 48" fill="none" xmlns="http://www.w3.org/2000/svg">
<g clip-path="url(#clip0_1_2073)">
<path fill-rule="evenodd" clip-rule="evenodd" d="M22.94 14.2443L23.6609 13.9045C24.0288 13.7317 24.4719 13.8877 24.6465 14.2499L39.3463 44.7751C39.5209 45.1392 39.3632 45.5775 38.9971 45.7502L38.2762 46.09C37.9082 46.2628 37.4651 46.1068 37.2905 45.7446L22.5908 15.2194C22.4162 14.8553 22.5739 14.417 22.94 14.2443Z" fill="#B0916D"/>
<path fill-rule="evenodd" clip-rule="evenodd" d="M12.9688 47.6297L23.1931 23.3848L35.0096 24.3072L29.7874 37.7558L12.9688 47.6297Z" fill="#F06022"/>
<path fill-rule="evenodd" clip-rule="evenodd" d="M-0.992188 13.834L23.2527 23.9732L22.405 35.8748L8.95991 30.702L-0.992188 13.834Z" fill="#5D3794"/>
<path fill-rule="evenodd" clip-rule="evenodd" d="M22.4242 35.1399L9.29297 30.0307L23.2522 23.3848L22.4242 35.1399Z" fill="#693E97"/>
<path fill-rule="evenodd" clip-rule="evenodd" d="M34.2752 -0.125L24.0509 24.1199L12.2344 23.1956L17.4547 9.7489L34.2752 -0.125Z" fill="#80B147"/>
<path fill-rule="evenodd" clip-rule="evenodd" d="M12.2344 22.4871L17.4275 9.42578L23.9895 23.385L12.2344 22.4871Z" fill="#84C44A"/>
<path fill-rule="evenodd" clip-rule="evenodd" d="M47.4988 34.4061L23.2539 24.2669L24.1016 12.3652L37.5467 17.5362L47.4988 34.4061Z" fill="#E8BA19"/>
<path fill-rule="evenodd" clip-rule="evenodd" d="M24.0819 12.3652L37.2131 17.4725L23.2539 24.1203L24.0819 12.3652Z" fill="#F0C721"/>
<path fill-rule="evenodd" clip-rule="evenodd" d="M35.009 24.2808L29.814 37.3439L23.2539 23.3848L35.009 24.2808Z" fill="#F37820"/>
<path fill-rule="evenodd" clip-rule="evenodd" d="M22.6657 21.3671C23.9835 20.8384 25.4795 21.4787 26.0082 22.7965C26.5369 24.1143 25.8966 25.6103 24.5787 26.139C23.2609 26.6677 21.7649 26.0274 21.2362 24.7096C20.7076 23.3918 21.3479 21.8958 22.6657 21.3671Z" fill="white"/>
</g>
<path d="M68.72 21.165H62.431L57.966 16.016V21.165H53.045V6.345H57.966V11.114L61.975 6.345H68.207L61.766 13.356L68.72 21.165ZM74.5828 21.165H69.7378V6.345H74.5828V21.165ZM90.7241 13.774C90.7241 15.9907 89.8817 17.7957 88.1971 19.189C86.6137 20.5063 84.6947 21.165 82.4401 21.165H76.3791V6.345H82.4401C84.6821 6.345 86.6011 7.01633 88.1971 8.359C89.8817 9.765 90.7241 11.57 90.7241 13.774ZM85.5561 13.774C85.5561 11.5067 84.1627 10.373 81.3761 10.373V17.194C82.7441 17.2193 83.7511 17.004 84.3971 16.548C85.1697 16.016 85.5561 15.0913 85.5561 13.774ZM103.049 16.073C103.049 19.7717 100.94 21.621 96.722 21.621C94.138 21.621 92.0987 20.975 90.604 19.683L92.789 15.845C93.967 17.0483 95.2273 17.65 96.57 17.65C96.8867 17.65 97.1843 17.574 97.463 17.422C97.805 17.2447 97.976 17.0103 97.976 16.719C97.976 16.3137 97.406 15.9463 96.266 15.617C94.632 15.1357 93.5617 14.743 93.055 14.439C91.915 13.7423 91.345 12.7417 91.345 11.437C91.345 7.751 93.3083 5.908 97.235 5.908C99.0717 5.908 100.877 6.37667 102.65 7.314L100.579 11.038C99.4643 10.2527 98.5143 9.86 97.729 9.86C96.9437 9.86 96.551 10.0753 96.551 10.506C96.551 10.8733 97.1083 11.2217 98.223 11.551C99.7557 12.007 100.801 12.425 101.358 12.805C102.485 13.565 103.049 14.6543 103.049 16.073ZM122.498 21.165H112.77V6.383H122.498V10.373H117.729V11.836H122.194V15.826L117.729 15.807V17.27H122.498V21.165ZM141.714 21.165H135.729L132.48 17.023L129.269 21.165H123.265L129.592 13.242L124.405 6.345H130.485L132.48 9.499L134.513 6.345H140.574L135.406 13.242L141.714 21.165ZM155.046 11.38C155.046 13.5587 154.324 15.028 152.88 15.788C151.841 16.3327 150.024 16.5797 147.427 16.529V21.165H142.449V6.345H149.574C151.157 6.345 152.456 6.782 153.469 7.656C154.52 8.58067 155.046 9.822 155.046 11.38ZM149.935 11.399C149.935 10.8037 149.637 10.43 149.042 10.278C148.839 10.2273 148.282 10.1957 147.37 10.183V12.729H148.396C149.422 12.729 149.935 12.2857 149.935 11.399ZM173.321 13.793C173.321 16.1997 172.441 18.144 170.68 19.626C169.033 21.0067 166.981 21.697 164.524 21.697C162.079 21.697 160.021 21.0003 158.349 19.607C156.576 18.125 155.689 16.187 155.689 13.793C155.689 11.361 156.569 9.41033 158.33 7.941C159.977 6.573 162.041 5.88267 164.524 5.87V5.851C167.019 5.851 169.084 6.54133 170.718 7.922C172.453 9.39133 173.321 11.3483 173.321 13.793ZM168.324 13.736C168.324 12.6847 167.944 11.836 167.184 11.19C166.475 10.582 165.582 10.278 164.505 10.278C163.403 10.278 162.497 10.5757 161.788 11.171C161.028 11.8043 160.648 12.6593 160.648 13.736C160.648 14.7873 161.034 15.636 161.807 16.282C162.529 16.8773 163.428 17.175 164.505 17.175C165.556 17.175 166.456 16.8647 167.203 16.244C167.95 15.6107 168.324 14.7747 168.324 13.736Z" fill="#5D3794"/>
<path d="M52.234 25.9H61.504V28.276H58.102V38.5H55.618V28.276H52.234V25.9ZM67.2287 38.752C65.8247 38.752 64.6727 38.356 63.7727 37.564C62.8727 36.772 62.4227 35.71 62.4227 34.378V25.9H64.8887V34.18C64.8887 34.852 65.0807 35.38 65.4647 35.764C65.8607 36.136 66.4487 36.322 67.2287 36.322C68.0087 36.322 68.5907 36.136 68.9747 35.764C69.3707 35.38 69.5687 34.852 69.5687 34.18V25.9H72.0527V34.378C72.0527 35.71 71.6027 36.772 70.7027 37.564C69.8027 38.356 68.6447 38.752 67.2287 38.752ZM83.5245 38.5H80.8425L78.3045 34.126H76.4145V38.5H73.9305V25.9H78.9705C80.1345 25.9 81.1245 26.308 81.9405 27.124C82.7565 27.94 83.1645 28.924 83.1645 30.076C83.1645 30.856 82.9425 31.582 82.4985 32.254C82.0545 32.914 81.4665 33.412 80.7345 33.748L83.5245 38.5ZM78.9705 28.222H76.4145V31.948H78.9705C79.4385 31.948 79.8405 31.768 80.1765 31.408C80.5125 31.036 80.6805 30.592 80.6805 30.076C80.6805 29.56 80.5125 29.122 80.1765 28.762C79.8405 28.402 79.4385 28.222 78.9705 28.222ZM89.6311 32.02L94.4731 38.5H91.6111L87.1111 32.596V38.5H84.6271V25.9H87.1111V31.462L91.4311 25.9H94.2931L89.6311 32.02ZM105.115 25.9H107.671V38.5H105.205V30.328L101.659 36.178H101.371L97.8253 30.346V38.5H95.3413V25.9H97.8973L101.515 31.858L105.115 25.9ZM112.143 33.298V36.124H117.453V38.5H109.659V25.9H117.363V28.276H112.143V30.958H116.913V33.298H112.143ZM126.134 33.586V25.9H128.618V38.5H126.728L121.328 30.796V38.5H118.844V25.9H120.734L126.134 33.586ZM130.595 38.5V25.9H133.079V38.5H130.595ZM139.16 38.752C137.924 38.752 136.88 38.476 136.028 37.924C135.176 37.372 134.57 36.61 134.21 35.638L136.334 34.396C136.826 35.68 137.792 36.322 139.232 36.322C139.904 36.322 140.408 36.202 140.744 35.962C141.08 35.722 141.248 35.398 141.248 34.99C141.248 34.546 141.05 34.204 140.654 33.964C140.258 33.712 139.55 33.442 138.53 33.154C137.426 32.818 136.556 32.428 135.92 31.984C135.128 31.396 134.732 30.532 134.732 29.392C134.732 28.24 135.134 27.334 135.938 26.674C136.742 25.99 137.72 25.648 138.872 25.648C139.88 25.648 140.774 25.894 141.554 26.386C142.334 26.878 142.94 27.574 143.372 28.474L141.284 29.68C140.78 28.6 139.976 28.06 138.872 28.06C138.368 28.06 137.966 28.18 137.666 28.42C137.366 28.648 137.216 28.948 137.216 29.32C137.216 29.716 137.378 30.04 137.702 30.292C138.062 30.544 138.698 30.808 139.61 31.084L140.474 31.372C140.63 31.42 140.9 31.522 141.284 31.678C141.644 31.81 141.908 31.936 142.076 32.056C142.664 32.416 143.06 32.788 143.264 33.172C143.576 33.676 143.732 34.27 143.732 34.954C143.732 36.118 143.306 37.042 142.454 37.726C141.602 38.41 140.504 38.752 139.16 38.752ZM143.599 25.9H152.869V28.276H149.467V38.5H146.983V28.276H143.599V25.9ZM163.782 38.5H161.082L160.326 36.232H155.304L154.548 38.5H151.866L156.276 25.9H159.354L163.782 38.5ZM157.824 28.762L156.096 33.91H159.552L157.824 28.762ZM171.936 33.586V25.9H174.42V38.5H172.53L167.13 30.796V38.5H164.646V25.9H166.536L171.936 33.586Z" fill="#489743"/>
<defs>
<clipPath id="clip0_1_2073">
<rect width="48" height="48" fill="white"/>
</clipPath>
</defs>
</svg>
