<svg width="80" height="80" viewBox="0 0 80 80" fill="none" xmlns="http://www.w3.org/2000/svg">
<path d="M23.334 55C23.334 54.558 23.1583 54.1342 22.8457 53.8216C22.611 53.5869 22.3136 53.4298 21.9928 53.3659L21.6673 53.3333H20.0007V56.6667H21.6673C22.1093 56.6667 22.5331 56.4909 22.8457 56.1784C23.1583 55.8658 23.334 55.442 23.334 55ZM43.334 56.6667C43.334 55.7826 42.9825 54.935 42.3574 54.3099C41.7323 53.6848 40.8847 53.3333 40.0007 53.3333V66.6667C40.8847 66.6667 41.7323 66.3152 42.3574 65.6901C42.9825 65.065 43.334 64.2174 43.334 63.3333V56.6667ZM53.334 70V50C53.334 48.159 54.8264 46.6667 56.6673 46.6667H66.6673C68.5083 46.6667 70.0007 48.159 70.0007 50C70.0007 51.8409 68.5083 53.3333 66.6673 53.3333H60.0007V56.6667H63.334C65.1749 56.6667 66.6673 58.159 66.6673 60C66.6673 61.8409 65.1749 63.3333 63.334 63.3333H60.0007V70C60.0007 71.8409 58.5083 73.3333 56.6673 73.3333C54.8264 73.3333 53.334 71.8409 53.334 70ZM13.334 40V16.6667C13.334 14.0145 14.3883 11.4717 16.2637 9.59634C18.139 7.72098 20.6818 6.66666 23.334 6.66666H46.6673L46.9961 6.68293C47.7594 6.75857 48.4769 7.09608 49.0241 7.64322L65.6908 24.3099C66.3159 24.935 66.6673 25.7826 66.6673 26.6667V40C66.6673 41.8409 65.1749 43.3333 63.334 43.3333C61.493 43.3333 60.0007 41.8409 60.0007 40V30H50.0007C48.2325 30 46.5374 29.2971 45.2871 28.0469C44.0369 26.7966 43.334 25.1014 43.334 23.3333V13.3333H23.334C22.4499 13.3333 21.6023 13.6848 20.9772 14.3099C20.3521 14.935 20.0007 15.7826 20.0007 16.6667V40C20.0007 41.8409 18.5083 43.3333 16.6673 43.3333C14.8264 43.3333 13.334 41.8409 13.334 40ZM50.0007 63.3333C50.0007 65.9855 48.9463 68.5283 47.071 70.4036C45.1956 72.279 42.6528 73.3333 40.0007 73.3333H36.6673C34.8264 73.3333 33.334 71.8409 33.334 70V50C33.334 48.159 34.8264 46.6667 36.6673 46.6667H40.0007C42.6528 46.6667 45.1956 47.721 47.071 49.5963C48.9463 51.4717 50.0007 54.0145 50.0007 56.6667V63.3333ZM30.0007 55C30.0007 57.2101 29.122 59.3291 27.5592 60.8919C25.9964 62.4547 23.8775 63.3333 21.6673 63.3333H20.0007V70C20.0007 71.8409 18.5083 73.3333 16.6673 73.3333C14.8264 73.3333 13.334 71.8409 13.334 70V50C13.334 48.159 14.8264 46.6667 16.6673 46.6667H21.6673C23.8775 46.6667 25.9964 47.5453 27.5592 49.1081C29.1221 50.6709 30.0007 52.7899 30.0007 55ZM55.2871 23.3333L50.0007 18.0469V23.3333H55.2871Z" fill="url(#paint0_linear_163_622)"/>
<defs>
<linearGradient id="paint0_linear_163_622" x1="41.6673" y1="6.66666" x2="41.6673" y2="73.3333" gradientUnits="userSpaceOnUse">
<stop stop-color="#8755B8"/>
<stop offset="1" stop-color="#7545A4"/>
</linearGradient>
</defs>
</svg>
